<svg version="1.1" id="Layer_1" xmlns="http://www.w3.org/2000/svg" xmlns:xlink="http://www.w3.org/1999/xlink" x="0px" y="0px" viewBox="0 0 368.5 74" style="enable-background:new 0 0 368.5 74;" xml:space="preserve">
<g>
                            <path d="M117.3,14.5c-1.7-0.8-3.5-1.2-5.6-1.2c-3.4,0-6.3,1.1-8.5,3.3c-2.3,2.2-3.4,4.9-3.4,8.2c0,3.1,0.9,5.7,2.8,7.9
		c2.2,2.6,5.3,3.9,9.2,3.9c2,0,3.9-0.4,5.5-1.2c1.6-0.8,3-1.9,4.1-3.3l-1.7-1.3c-2.1,2.4-4.7,3.6-7.8,3.6c-2.8,0-5.2-0.9-7-2.7
		c-1.8-1.8-2.8-4.1-2.8-6.8c0-1.8,0.4-3.4,1.2-4.8c0.8-1.4,2-2.6,3.5-3.4c1.5-0.8,3.1-1.3,4.9-1.3c1.6,0,3.1,0.3,4.4,1
		c1.3,0.6,2.5,1.6,3.5,2.8l1.7-1.3C120.3,16.4,118.9,15.3,117.3,14.5L117.3,14.5z M127.5,14.8c-1.8,1-3.2,2.4-4.2,4.3
		c-1,1.8-1.5,3.8-1.5,5.9c0,3.2,1.1,5.9,3.4,8.2c2.3,2.2,5,3.4,8.3,3.4c3.2,0,6-1.1,8.2-3.4c2.3-2.3,3.4-5,3.4-8.2
		c0-3.3-1.1-6-3.4-8.3c-2.3-2.2-5.1-3.4-8.4-3.4C131.2,13.2,129.3,13.8,127.5,14.8L127.5,14.8z M138.1,16.7c1.5,0.9,2.6,2,3.5,3.4
		c0.8,1.4,1.2,3,1.2,4.8c0,1.8-0.4,3.4-1.2,4.8c-0.8,1.4-2,2.6-3.4,3.4c-1.5,0.8-3,1.2-4.8,1.2c-2.6,0-4.8-0.9-6.6-2.7
		c-1.8-1.8-2.7-4-2.7-6.7c0-1.8,0.4-3.4,1.2-4.8c0.8-1.4,2-2.6,3.4-3.4c1.5-0.9,3-1.3,4.7-1.3C135,15.4,136.6,15.8,138.1,16.7
		L138.1,16.7z M147.3,35.9H158v-2.1h-8.5v-20h-2.2V35.9L147.3,35.9z M160.3,35.9H171v-2.1h-8.5v-20h-2.2V35.9L160.3,35.9z
		 M173.3,35.9h12.6v-2.2h-10.4v-8.7h8v-2.2h-8V16H186v-2.2h-12.7V35.9L173.3,35.9z M212.6,35.9h12.6v-2.2h-10.4v-8.7h8.4v-2.2h-8.4
		V16h10.5v-2.2h-12.7V35.9L212.6,35.9z"></path>
                            <path d="M16.8,35.9h7.4V20.1h6.5v-6.3H10.3v6.3h6.5V35.9L16.8,35.9z M32.3,35.9h19v-6.1H39.5v-2.4h9.9v-5.3h-9.9v-2.2h11.6v-6.1
		H32.3V35.9L32.3,35.9z M66.9,35.9c1.1-0.3,2.1-0.7,2.9-1.3c0.9-0.5,1.6-1.2,2.2-1.9c0.6-0.7,1.2-1.5,1.6-2.3L67.6,27
		c-0.5,0.8-1,1.5-1.6,2c-0.6,0.5-1.5,0.8-2.5,0.8c-0.6,0-1.2-0.1-1.7-0.4c-0.5-0.2-0.9-0.6-1.3-1c-0.4-0.4-0.7-0.9-0.9-1.5
		c-0.2-0.6-0.3-1.3-0.3-2v-0.1c0-0.7,0.1-1.3,0.3-1.9c0.2-0.6,0.5-1.1,0.8-1.5c0.4-0.4,0.8-0.8,1.3-1c0.5-0.3,1.1-0.4,1.7-0.4
		c1,0,1.8,0.2,2.4,0.7c0.6,0.5,1.1,1.1,1.6,1.9l6.1-3.6c-0.5-0.8-1-1.6-1.7-2.3c-0.6-0.7-1.4-1.3-2.2-1.8c-0.8-0.5-1.8-0.9-2.8-1.2
		c-1-0.3-2.1-0.4-3.4-0.4c-1.6,0-3.2,0.3-4.6,0.9c-1.4,0.6-2.7,1.4-3.7,2.4c-1.1,1-1.9,2.3-2.5,3.7c-0.6,1.4-0.9,2.9-0.9,4.6v0.1
		c0,1.7,0.3,3.3,0.9,4.7c0.6,1.4,1.5,2.6,2.5,3.6c1.1,1,2.3,1.8,3.6,2.3c1.4,0.5,2.8,0.8,4.4,0.8C64.6,36.4,65.8,36.2,66.9,35.9
		L66.9,35.9z M74.9,35.9h7.4V28h6.8v7.9h7.4V13.8h-7.4v7.8h-6.8v-7.8h-7.4V35.9L74.9,35.9z"></path>
                            <path d="M205.2,15c-3.8-2.3-8.8-2.3-12.7,0.4c-5.2,3.7-6.5,10.9-2.8,16.2c3.7,5.2,10.9,6.5,16.2,2.8c3.9-2.7,5.6-7.4,4.7-11.7
		l-2,0.4c0.7,3.6-0.7,7.4-3.9,9.7c-4.3,3-10.3,2-13.3-2.3c-3-4.3-2-10.3,2.3-13.3c3.2-2.3,7.3-2.2,10.5-0.3L205.2,15L205.2,15z"></path>
                            <polygon points="199,23.7 200.2,25.4 209,19.2 207.8,17.6 199,23.7 	"></polygon>
</g>
<g>
                            <path d="M10.3,53.5h6.6V55h-4.9v3.4h4.5v1.5h-4.5v3.9h4.9v1.5h-6.6V53.5z"></path>
                            <path d="M19.4,56.7h1.5V58h0c0.4-0.9,1.3-1.5,2.2-1.5c0.5,0,0.7,0.1,1,0.1V58c-0.3-0.1-0.6-0.2-0.9-0.2c-1.4,0-2.3,1.3-2.3,3.5v3.9
		h-1.6V56.7z"></path>
                            <path d="M25.9,52.6h1.6v5.3h0c0.6-0.9,1.6-1.4,2.8-1.4c2.2,0,3.2,1.4,3.2,3.7v5.1h-1.6v-4.4c0-2-0.4-3-1.8-3.1
		c-1.8,0-2.6,1.4-2.6,3.5v4h-1.6V52.6z"></path>
                            <path d="M40,65.3h-1.9l-3.1-8.6h1.7l2.3,7h0l2.4-7h1.6L40,65.3z"></path>
                            <path d="M51.2,64.9c-0.6,0.2-1.3,0.6-2.7,0.6c-3,0-4.4-1.9-4.4-4.6c0-2.5,1.6-4.3,4-4.3c2.9,0,3.8,2.1,3.8,4.8h-6.1
		c0,1.7,1.3,2.9,2.8,2.9c1,0,2.3-0.5,2.6-0.9V64.9z M50.2,60.1c0-1.3-0.8-2.4-2.1-2.4c-1.5,0-2.2,1.3-2.3,2.4H50.2z"></path>
                            <path d="M54,56.7h1.5V58h0c0.4-0.9,1.3-1.5,2.2-1.5c0.5,0,0.7,0.1,1,0.1V58c-0.3-0.1-0.6-0.2-0.9-0.2c-1.4,0-2.3,1.3-2.3,3.5v3.9
		H54V56.7z"></path>
                            <path d="M64.4,65.3h-1.9l-3.1-8.6h1.7l2.3,7h0l2.4-7h1.6L64.4,65.3z"></path>
                            <path d="M68.3,63.6c0.6,0.4,1.5,0.6,2,0.6c0.7,0,1.6-0.3,1.6-1.2c0-1.6-3.7-1.4-3.7-3.8c0-1.8,1.3-2.6,3-2.6c0.7,0,1.3,0.2,2,0.3
		l-0.1,1.4c-0.4-0.2-1.3-0.4-1.7-0.4c-0.8,0-1.5,0.3-1.5,1c0,1.8,3.7,1.2,3.7,4c0,1.8-1.5,2.7-3,2.7c-0.8,0-1.6-0.1-2.4-0.5
		L68.3,63.6z"></path>
                            <path d="M74.9,63.6c0.6,0.4,1.5,0.6,2,0.6c0.7,0,1.6-0.3,1.6-1.2c0-1.6-3.7-1.4-3.7-3.8c0-1.8,1.3-2.6,3-2.6c0.7,0,1.3,0.2,2,0.3
		l-0.1,1.4c-0.4-0.2-1.3-0.4-1.7-0.4c-0.8,0-1.5,0.3-1.5,1c0,1.8,3.7,1.2,3.7,4c0,1.8-1.5,2.7-3,2.7c-0.8,0-1.6-0.1-2.4-0.5
		L74.9,63.6z"></path>
                            <path d="M82.1,52.6h1.6v7.5l3.5-3.5h2.2l-4,3.8l4.5,4.8h-2.3l-3.8-4.4v4.4h-1.6V52.6z"></path>
                            <path d="M95.2,56.5c2.6,0,4.4,1.9,4.4,4.5c0,2.5-1.8,4.5-4.4,4.5c-2.6,0-4.4-2-4.4-4.5C90.9,58.4,92.6,56.5,95.2,56.5z M95.2,64.2
		c1.9,0,2.7-1.7,2.7-3.2c0-1.6-1-3.2-2.7-3.2c-1.7,0-2.7,1.6-2.7,3.2C92.6,62.5,93.4,64.2,95.2,64.2z"></path>
                            <path d="M101.9,52.6h1.6v12.6h-1.6V52.6z"></path>
                            <path d="M113,64.9c-0.6,0.2-1.3,0.6-2.7,0.6c-3,0-4.4-1.9-4.4-4.6c0-2.5,1.6-4.3,4-4.3c2.9,0,3.8,2.1,3.8,4.8h-6.1
		c0,1.7,1.3,2.9,2.8,2.9c1,0,2.3-0.5,2.6-0.9V64.9z M112,60.1c0-1.3-0.8-2.4-2.1-2.4c-1.5,0-2.2,1.3-2.3,2.4H112z"></path>
                            <path d="M120.4,53.5h1.2v11.8h-1.2V53.5z"></path>
                            <path d="M137.9,55.6c-0.8-0.5-1.7-0.8-3.2-0.8c-2.7,0-4.5,2-4.5,4.6c0,2.8,2,4.6,4.4,4.6c1.2,0,1.5-0.1,1.9-0.2v-3.6H134v-1.4h4.2
		v6.1c-0.6,0.2-1.8,0.5-3.6,0.5c-3.7,0-6.2-2.4-6.2-6.1c0-3.6,2.6-6,6.2-6c1.7,0,2.5,0.3,3.5,0.6L137.9,55.6z"></path>
                            <path d="M140.4,67.6c0.2,0.1,0.5,0.1,0.7,0.1c1.4,0,1.9-2,1.9-2.1c0-0.2-0.2-0.6-0.3-0.9l-2.9-8h1.7l2.3,7.1h0l2.4-7.1h1.6
		l-3.2,8.8c-0.6,1.7-1.2,3.6-3.3,3.6c-0.5,0-0.8-0.1-1.1-0.1L140.4,67.6z"></path>
                            <path d="M149.4,56.7h1.5v1.2h0c0.6-1,1.5-1.4,2.7-1.4c1,0,2,0.5,2.4,1.7c0.6-1.2,1.9-1.7,2.7-1.7c2.2,0,3,1.4,3,3.3v5.5h-1.6v-5.1
		c0-1.1-0.3-2.4-1.5-2.4c-1.6,0-2.3,1.6-2.3,3.2v4.3h-1.6v-5.1c0-1.1-0.3-2.4-1.5-2.4c-1.6,0-2.3,1.6-2.3,3.2v4.3h-1.6V56.7z"></path>
                            <path d="M164.4,56.7h1.5V58h0c0.5-1,1.6-1.6,2.8-1.6c2.2,0,3.2,1.4,3.2,3.7v5.1h-1.6v-4.4c0-2-0.4-3-1.8-3.1
		c-1.8,0-2.6,1.4-2.6,3.5v4h-1.6V56.7z"></path>
                            <path d="M175.1,57.3c0.8-0.5,1.7-0.8,2.8-0.8c2.5,0,3.5,1.2,3.5,3.6v3.6c0,1,0,1.4,0.1,1.7H180v-1.1h0c-0.4,0.5-1.2,1.3-2.7,1.3
		c-1.9,0-3.1-0.8-3.1-2.7c0-2.2,2.4-2.8,4-2.8c0.6,0,1.1,0,1.7,0c0-1.5-0.5-2.2-2.1-2.2c-0.9,0-1.9,0.3-2.5,0.9L175.1,57.3z
		 M179.8,61.2c-0.3,0-0.7,0-1,0c-0.9,0-3,0.1-3,1.7c0,0.9,0.9,1.4,1.6,1.4c1.6,0,2.4-1,2.4-2.3V61.2z"></path>
                            <path d="M183.4,63.6c0.6,0.4,1.5,0.6,2,0.6c0.7,0,1.6-0.3,1.6-1.2c0-1.6-3.7-1.4-3.7-3.8c0-1.8,1.3-2.6,3-2.6c0.7,0,1.3,0.2,2,0.3
		l-0.1,1.4c-0.4-0.2-1.3-0.4-1.7-0.4c-0.8,0-1.5,0.3-1.5,1c0,1.8,3.7,1.2,3.7,4c0,1.8-1.5,2.7-3,2.7c-0.8,0-1.6-0.1-2.4-0.5
		L183.4,63.6z"></path>
                            <path d="M192.5,54.8h-1.8V53h1.8V54.8z M190.8,56.7h1.6v8.6h-1.6V56.7z"></path>
                            <path d="M202.9,65.3h-1.5v-1.4h0c-0.5,1-1.6,1.6-2.8,1.6c-2.2,0-3.2-1.4-3.2-3.7v-5.1h1.6v4.4c0,2,0.4,3,1.8,3.1
		c1.8,0,2.6-1.4,2.6-3.5v-4h1.6V65.3z"></path>
                            <path d="M205.6,56.7h1.5v1.2h0c0.6-1,1.5-1.4,2.7-1.4c1,0,2,0.5,2.4,1.7c0.6-1.2,1.9-1.7,2.7-1.7c2.2,0,3,1.4,3,3.3v5.5h-1.6v-5.1
		c0-1.1-0.3-2.4-1.5-2.4c-1.6,0-2.3,1.6-2.3,3.2v4.3h-1.6v-5.1c0-1.1-0.3-2.4-1.5-2.4c-1.6,0-2.3,1.6-2.3,3.2v4.3h-1.6V56.7z"></path>
                            <path d="M225.2,53.5h1.2v11.8h-1.2V53.5z"></path>
                            <path d="M233.9,53.5h6.6V55h-4.9v3.4h4.5v1.5h-4.5v3.9h4.9v1.5h-6.6V53.5z"></path>
                            <path d="M244.1,58h-2v-1.3h2v-0.8c0-2.1,0.5-3.5,2.9-3.5c0.4,0,0.7,0.1,1.1,0.1l-0.1,1.3c-0.2-0.1-0.5-0.1-0.8-0.1
		c-1.4,0-1.5,0.9-1.5,2v0.9h2.3V58h-2.3v7.3h-1.6V58z"></path>
                            <path d="M254.1,58h-2.3v4.7c0,1,0.6,1.5,1.3,1.5c0.5,0,0.8-0.2,1.1-0.3v1.3c-0.4,0.1-0.8,0.2-1.3,0.2c-1.6,0-2.6-0.8-2.6-2.5v-5
		h-1.9v-1.3h1.9v-2l1.6-0.5v2.5h2.3V58z"></path>
                            <path d="M262.7,64.9c-0.6,0.2-1.3,0.6-2.7,0.6c-3,0-4.4-1.9-4.4-4.6c0-2.5,1.6-4.3,4-4.3c2.9,0,3.8,2.1,3.8,4.8h-6.1
		c0,1.7,1.3,2.9,2.8,2.9c1,0,2.3-0.5,2.6-0.9V64.9z M261.7,60.1c0-1.3-0.8-2.4-2.1-2.4c-1.5,0-2.2,1.3-2.3,2.4H261.7z"></path>
                            <path d="M265.5,56.7h1.5V58h0c0.4-0.9,1.3-1.5,2.2-1.5c0.5,0,0.7,0.1,1,0.1V58c-0.3-0.1-0.6-0.2-0.9-0.2c-1.4,0-2.3,1.3-2.3,3.5
		v3.9h-1.6V56.7z"></path>
                            <path d="M279.6,65.3h-1.5v-1.4h0c-0.5,1-1.6,1.6-2.8,1.6c-2.2,0-3.2-1.4-3.2-3.7v-5.1h1.6v4.4c0,2,0.4,3,1.8,3.1
		c1.8,0,2.6-1.4,2.6-3.5v-4h1.6V65.3z"></path>
                            <path d="M288.4,64L288.4,64c-0.5,0.6-1.4,1.4-3,1.4c-2.6,0-3.7-2.3-3.7-4.6c0-2.3,1.2-4.3,3.7-4.3c1.5,0,2.4,0.6,2.8,1.4h0v-5.2
		h1.6v12.6h-1.5V64z M285.8,64.2c1.8,0,2.5-1.8,2.5-3.2c0-1.6-0.8-3.2-2.5-3.2c-1.7,0-2.4,1.6-2.4,3.2
		C283.4,62.3,284.1,64.2,285.8,64.2z"></path>
                            <path d="M298.7,64L298.7,64c-0.5,0.6-1.4,1.4-3,1.4c-2.6,0-3.7-2.3-3.7-4.6c0-2.3,1.2-4.3,3.7-4.3c1.5,0,2.4,0.6,2.8,1.4h0v-5.2
		h1.6v12.6h-1.5V64z M296.1,64.2c1.8,0,2.5-1.8,2.5-3.2c0-1.6-0.8-3.2-2.5-3.2c-1.7,0-2.4,1.6-2.4,3.2
		C293.7,62.3,294.4,64.2,296.1,64.2z"></path>
                            <path d="M303.3,57.3c0.8-0.5,1.7-0.8,2.8-0.8c2.5,0,3.5,1.2,3.5,3.6v3.6c0,1,0,1.4,0.1,1.7h-1.5v-1.1h0c-0.4,0.5-1.2,1.3-2.7,1.3
		c-1.9,0-3.1-0.8-3.1-2.7c0-2.2,2.4-2.8,4-2.8c0.6,0,1.1,0,1.7,0c0-1.5-0.5-2.2-2.1-2.2c-0.9,0-1.9,0.3-2.5,0.9L303.3,57.3z
		 M308,61.2c-0.3,0-0.7,0-1,0c-0.9,0-3,0.1-3,1.7c0,0.9,0.9,1.4,1.6,1.4c1.6,0,2.4-1,2.4-2.3V61.2z"></path>
                            <path d="M312.3,56.7h1.5V58h0c0.5-1,1.6-1.6,2.8-1.6c2.2,0,3.2,1.4,3.2,3.7v5.1h-1.6v-4.4c0-2-0.4-3-1.8-3.1
		c-1.8,0-2.6,1.4-2.6,3.5v4h-1.6V56.7z"></path>
                            <path d="M322.6,56.7h1.5V58h0c0.5-1,1.6-1.6,2.8-1.6c2.2,0,3.2,1.4,3.2,3.7v5.1h-1.6v-4.4c0-2-0.4-3-1.8-3.1
		c-1.8,0-2.6,1.4-2.6,3.5v4h-1.6V56.7z"></path>
                            <path d="M339.4,64.9c-0.6,0.2-1.3,0.6-2.7,0.6c-3,0-4.4-1.9-4.4-4.6c0-2.5,1.6-4.3,4-4.3c2.9,0,3.8,2.1,3.8,4.8H334
		c0,1.7,1.3,2.9,2.8,2.9c1,0,2.3-0.5,2.6-0.9V64.9z M338.4,60.1c0-1.3-0.8-2.4-2.1-2.4c-1.5,0-2.2,1.3-2.3,2.4H338.4z"></path>
                            <path d="M342.4,52.6h1.6v12.6h-1.6V52.6z"></path>
                            <path d="M346.2,63.6c0.6,0.4,1.5,0.6,2,0.6c0.7,0,1.6-0.3,1.6-1.2c0-1.6-3.7-1.4-3.7-3.8c0-1.8,1.3-2.6,3-2.6c0.7,0,1.3,0.2,2,0.3
		l-0.1,1.4c-0.4-0.2-1.3-0.4-1.7-0.4c-0.8,0-1.5,0.3-1.5,1c0,1.8,3.7,1.2,3.7,4c0,1.8-1.5,2.7-3,2.7c-0.8,0-1.6-0.1-2.4-0.5
		L346.2,63.6z"></path>
                            <path d="M360,64.9c-0.6,0.2-1.3,0.6-2.7,0.6c-3,0-4.4-1.9-4.4-4.6c0-2.5,1.6-4.3,4-4.3c2.9,0,3.8,2.1,3.8,4.8h-6.1
		c0,1.7,1.3,2.9,2.8,2.9c1,0,2.3-0.5,2.6-0.9V64.9z M359,60.1c0-1.3-0.8-2.4-2.1-2.4c-1.5,0-2.2,1.3-2.3,2.4H359z"></path>
</g>
</svg>